<svg width="24" height="24" viewBox="0 0 24 24" fill="none" xmlns="http://www.w3.org/2000/svg">
<g clip-path="url(#clip0_4439_18568)">
<path d="M15.75 6C15.75 3.92893 14.0711 2.25 12 2.25C9.92893 2.25 8.25 3.92893 8.25 6V12C8.25 14.0711 9.92893 15.75 12 15.75C14.0711 15.75 15.75 14.0711 15.75 12V6Z" stroke="#CBCACE" stroke-width="2" stroke-linecap="round" stroke-linejoin="round"/>
<path d="M12 19.5V22.5" stroke="#CBCACE" stroke-width="2" stroke-linecap="round" stroke-linejoin="round"/>
<path d="M19.5 12C19.5 13.9891 18.7098 15.8968 17.3033 17.3033C15.8968 18.7098 13.9891 19.5 12 19.5C10.0109 19.5 8.10322 18.7098 6.6967 17.3033C5.29018 15.8968 4.5 13.9891 4.5 12" stroke="#CBCACE" stroke-width="2" stroke-linecap="round" stroke-linejoin="round"/>
</g>
<defs>
<clipPath id="clip0_4439_18568">
<rect width="24" height="24" fill="white"/>
</clipPath>
</defs>
</svg>
