<svg width="16" height="13" viewBox="0 0 16 13" fill="none" xmlns="http://www.w3.org/2000/svg">
<path d="M15.3172 6.94229L9.69219 12.5673C9.57491 12.6846 9.41585 12.7505 9.25 12.7505C9.08415 12.7505 8.92509 12.6846 8.80781 12.5673C8.69054 12.45 8.62465 12.291 8.62465 12.1251C8.62465 11.9593 8.69054 11.8002 8.80781 11.6829L13.3664 7.1251H1.125C0.95924 7.1251 0.800269 7.05926 0.683058 6.94205C0.565848 6.82484 0.5 6.66586 0.5 6.5001C0.5 6.33434 0.565848 6.17537 0.683058 6.05816C0.800269 5.94095 0.95924 5.8751 1.125 5.8751H13.3664L8.80781 1.31729C8.69054 1.20002 8.62465 1.04096 8.62465 0.875103C8.62465 0.709251 8.69054 0.550191 8.80781 0.432916C8.92509 0.31564 9.08415 0.249756 9.25 0.249756C9.41585 0.249756 9.57491 0.31564 9.69219 0.432916L15.3172 6.05792C15.3753 6.11596 15.4214 6.18489 15.4529 6.26077C15.4843 6.33664 15.5005 6.41797 15.5005 6.5001C15.5005 6.58224 15.4843 6.66357 15.4529 6.73944C15.4214 6.81531 15.3753 6.88425 15.3172 6.94229Z" fill="#CBCACE"/>
</svg>
