<svg width="32" height="32" viewBox="0 0 32 32" fill="none" xmlns="http://www.w3.org/2000/svg">
<path d="M23.3032 4.86548L28.3905 7.80048L22.9034 10.9661L21.7023 11.6591L22.9034 12.352L29.1914 15.9797V21.8497L17.4152 15.056L17.415 8.26253L23.3032 4.86548ZM16.7239 30.6136L16.7259 24.2788L16.7263 22.8921L15.5257 23.5859L9.24001 27.2176L4.15642 24.2826L15.9281 17.481L21.8115 20.8775L21.8093 27.6754L16.7239 30.6136ZM2.80044 9.10358L8.28552 12.2727L9.48619 12.9665L9.48575 11.5798L9.48342 4.32038L14.567 1.38537L14.5715 14.9807L8.68835 18.3777L2.80233 14.9768L2.80044 9.10358Z" stroke="white" stroke-width="1.6"/>
</svg>
